<?xml version="1.0" encoding="UTF-8" standalone="no"?>
<svg
   xmlns:dc="http://purl.org/dc/elements/1.1/"
   xmlns:cc="http://creativecommons.org/ns#"
   xmlns:rdf="http://www.w3.org/1999/02/22-rdf-syntax-ns#"
   xmlns:svg="http://www.w3.org/2000/svg"
   xmlns="http://www.w3.org/2000/svg"
   xmlns:sodipodi="http://sodipodi.sourceforge.net/DTD/sodipodi-0.dtd"
   xmlns:inkscape="http://www.inkscape.org/namespaces/inkscape"
   width="100px"
   height="100px"
   viewBox="0 0 100 100"
   version="1.1"
   id="svg34"
   sodipodi:docname="icon.svg"
   inkscape:version="0.92.4 (5da689c313, 2019-01-14)">
  <metadata
     id="metadata38">
    <rdf:RDF>
      <cc:Work
         rdf:about="">
        <dc:format>image/svg+xml</dc:format>
        <dc:type
           rdf:resource="http://purl.org/dc/dcmitype/StillImage" />
        <dc:title>database</dc:title>
      </cc:Work>
    </rdf:RDF>
  </metadata>
  <sodipodi:namedview
     pagecolor="#ffffff"
     bordercolor="#666666"
     borderopacity="1"
     objecttolerance="10"
     gridtolerance="10"
     guidetolerance="10"
     inkscape:pageopacity="0"
     inkscape:pageshadow="2"
     inkscape:window-width="1920"
     inkscape:window-height="1057"
     id="namedview36"
     showgrid="false"
     inkscape:zoom="8.88"
     inkscape:cx="50"
     inkscape:cy="50"
     inkscape:window-x="-8"
     inkscape:window-y="-8"
     inkscape:window-maximized="1"
     inkscape:current-layer="svg34" />
  <!-- Generator: Sketch 41.2 (35397) - http://www.bohemiancoding.com/sketch -->
  <title
     id="title25">database</title>
  <desc
     id="desc27">Created with Sketch.</desc>
  <defs
     id="defs29" />
  <g
     id="Page-1"
     stroke="none"
     stroke-width="1"
     fill="none"
     fill-rule="evenodd">
    <g
       id="database"
       fill="#000000">
      <path
         d="M49.8571429,42.8571429 C66.6540179,42.8571429 83.5066964,39.84375 92.7142857,33.3705357 L92.7142857,42.8571429 C92.7142857,50.7254464 73.5178571,57.1428571 49.8571429,57.1428571 C26.1964286,57.1428571 7,50.7254464 7,42.8571429 L7,33.3705357 C16.2075893,39.84375 33.0602679,42.8571429 49.8571429,42.8571429 Z M49.8571429,85.7142857 C66.6540179,85.7142857 83.5066964,82.7008929 92.7142857,76.2276786 L92.7142857,85.7142857 C92.7142857,93.5825893 73.5178571,100 49.8571429,100 C26.1964286,100 7,93.5825893 7,85.7142857 L7,76.2276786 C16.2075893,82.7008929 33.0602679,85.7142857 49.8571429,85.7142857 Z M49.8571429,64.2857143 C66.6540179,64.2857143 83.5066964,61.2723214 92.7142857,54.7991071 L92.7142857,64.2857143 C92.7142857,72.1540179 73.5178571,78.5714286 49.8571429,78.5714286 C26.1964286,78.5714286 7,72.1540179 7,64.2857143 L7,54.7991071 C16.2075893,61.2723214 33.0602679,64.2857143 49.8571429,64.2857143 Z M49.8571429,0 C73.5178571,0 92.7142857,6.41741071 92.7142857,14.2857143 L92.7142857,21.4285714 C92.7142857,29.296875 73.5178571,35.7142857 49.8571429,35.7142857 C26.1964286,35.7142857 7,29.296875 7,21.4285714 L7,14.2857143 C7,6.41741071 26.1964286,0 49.8571429,0 Z"
         id="Shape" />
    </g>
  </g>
  <path
     style="fill:#bc4f3e;fill-opacity:1;stroke-width:0.11261261"
     d="M 45.101351,35.5854 C 39.032827,35.277485 35.267611,34.898047 30.686937,34.132794 18.962511,32.174096 10.393772,28.442766 7.9077361,24.2134 7.1068585,22.850907 7.0945946,22.754961 7.0945946,17.851783 c 0,-4.030648 0.016869,-4.414204 0.2235632,-5.083403 0.855436,-2.7695803 4.3590612,-5.4784725 9.9115722,-7.6633146 13.566954,-5.33842289 36.734008,-6.6085923 54.673423,-2.9975546 5.582544,1.1237142 10.105656,2.5733421 13.682433,4.3851311 3.635219,1.8413923 5.957098,3.9429101 6.787923,6.1437071 0.243707,0.645564 0.250365,0.784489 0.250365,5.224011 0,4.439523 -0.0067,4.578447 -0.250365,5.224012 -1.650829,4.372926 -9.264025,8.287884 -20.470356,10.526536 -4.36816,0.872612 -8.455851,1.397041 -14.189189,1.820398 -1.558158,0.115057 -11.087449,0.23148 -12.612613,0.154094 z"
     id="path40"
     inkscape:connector-curvature="0" />
  <path
     style="fill:#bc4f3e;fill-opacity:1;stroke-width:0.11261261"
     d="M 44.369369,56.975222 C 34.9149,56.4766 27.723855,55.363306 21.114865,53.375038 13.359036,51.04175 8.2854903,47.685834 7.2732131,44.219426 7.121905,43.701291 7.0945946,42.837363 7.0945946,38.569065 V 33.53036 l 1.1542793,0.728244 c 0.6348536,0.400535 1.9650901,1.127553 2.9560811,1.615596 7.784846,3.833882 18.70607,6.184222 31.925676,6.870675 4.506455,0.234006 12.376676,0.12927 17.004504,-0.226295 13.350176,-1.02572 24.536647,-3.986435 31.418919,-8.315624 l 1.06982,-0.672953 0.02935,4.839528 c 0.0314,5.177661 -0.01095,5.702057 -0.546961,6.773636 -3.047243,6.091841 -17.631391,10.868326 -36.003204,11.791485 -2.013798,0.10119 -10.056945,0.129 -11.733693,0.04057 z"
     id="path42"
     inkscape:connector-curvature="0" />
  <path
     style="fill:#bc4f3e;fill-opacity:1;stroke-width:0.11261261"
     d="M 45.537568,78.440467 C 26.433622,77.811146 10.787314,72.906062 7.6421073,66.56032 l -0.4912064,-0.991054 -0.03237,-5.273372 c -0.017804,-2.900354 -2.887e-4,-5.273371 0.038922,-5.273371 0.039211,0 0.2058047,0.09354 0.3702083,0.20787 2.9543068,2.054473 8.5745468,4.405623 13.8687348,5.801796 16.334229,4.30763 39.414047,4.406462 55.968469,0.239667 5.779174,-1.454634 10.540578,-3.354626 14.279822,-5.698223 l 1.047839,-0.65674 -0.03523,5.204842 c -0.04025,5.946063 0.0017,5.670913 -1.118841,7.346194 -3.502074,5.236034 -16.384398,9.508155 -32.247911,10.694264 -4.633723,0.346461 -9.000739,0.434823 -13.752973,0.278274 z"
     id="path44"
     inkscape:connector-curvature="0" />
  <path
     style="fill:#bc4f3e;fill-opacity:1;stroke-width:0.11261261"
     d="M 44.502153,99.833544 C 30.133653,99.22988 17.489019,96.174725 11.19387,91.785707 9.2354936,90.420315 7.8985533,88.874365 7.3622206,87.355036 7.1017931,86.617295 7.0993229,86.562906 7.0969698,81.51464 c -0.00131,-2.802647 0.021219,-5.095721 0.050056,-5.095721 0.028837,0 0.482195,0.280134 1.0074618,0.62252 3.0449444,1.984795 8.3328234,4.141651 13.3545214,5.447132 11.061847,2.875728 25.103646,3.921102 38.682432,2.879803 13.780461,-1.056765 25.449707,-4.245415 32.015402,-8.748288 l 0.48387,-0.331846 -0.0359,5.217366 c -0.03479,5.05514 -0.0436,5.237751 -0.283503,5.872942 -2.968467,7.859675 -24.41687,13.440302 -47.869154,12.454996 z"
     id="path46"
     inkscape:connector-curvature="0" />
</svg>
